<svg xmlns="http://www.w3.org/2000/svg" viewBox="0 0 941.5 354.57"><defs><style>.cls-1{fill:#1f3146;}</style></defs><title>logo_darkblue</title><g id="Calque_1" data-name="Calque 1"><g id="Logo_wo_sh"><polygon class="cls-1" points="165.36 1.92 99.07 128.13 87.4 1.92 49.37 1.92 0 234.21 36.11 234.21 65.55 95.68 75.35 193.15 95.16 193.15 148.36 90.16 117.74 234.21 153.05 234.21 202.42 1.92 165.36 1.92"/><path class="cls-1" d="M307.2,89.63a30.76,30.76,0,0,0-13.92-18Q283,65.5,266.55,65.5a64.43,64.43,0,0,0-28.9,6.31,57.2,57.2,0,0,0-21.41,18.45Q207.58,102.41,204,119.5l-14.06,66.14q-3.42,16.14.38,27.56a30.54,30.54,0,0,0,14.27,17.42q10.47,6,26.92,6,24.28,0,40.37-12.54t20.94-35.38l1-4.64-38.12-.32-1.22,5.76a14,14,0,0,1-5.19,8.62,16.43,16.43,0,0,1-10.23,3q-6.7,0-9.52-3.68t-1.36-10.54l4.62-21.73h64.54l10-47Q310.84,101.45,307.2,89.63Zm-37.9,26.84-4.21,19.8h-26.2l4-18.69q1.69-8,5.91-12.38a13.67,13.67,0,0,1,10.28-4.39q6.39,0,9.1,4.15T269.3,116.47Z"/><path class="cls-1" d="M495.46,179.89q16.1-27.63,24.35-66.46H482a240.79,240.79,0,0,1-11,37.8l-12.74-30.45a215.38,215.38,0,0,1-8.65-24,102.16,102.16,0,0,1-3.82-21.48,76.35,76.35,0,0,1,1.51-21q1.93-9.1,6.92-14.14a15.91,15.91,0,0,1,11.7-5q6.71,0,9.42,4.87t.89,13.5l-4.21,19.81H511.4l4.21-19.81q5.4-25.39-5.67-39.46T473.31,0q-25.57,0-42.82,14.3t-22.73,40a101.3,101.3,0,0,0-2.12,29.15,129.13,129.13,0,0,0,4.92,26.84c.77,2.61,1.67,5.45,2.68,8.47a78.71,78.71,0,0,0-25.85,13.74q-19.61,15.9-25.2,42.26-4.14,19.49-.23,33.39t15.47,21.16q11.55,7.28,29.93,7.27a89.14,89.14,0,0,0,45.91-12.29l3.8,9.9h48.57l-17.79-42.53C490.49,188,493,184.05,495.46,179.89Zm-73.84,20.45q-12.47,0-17.91-6.71t-2.86-18.85a28.77,28.77,0,0,1,13.68-19.25A41.88,41.88,0,0,1,425.1,151l16.47,42.86A34.8,34.8,0,0,1,421.62,200.34Z"/><path class="cls-1" d="M642.62,192.34l-9.08,40L604.86,354.57H565.24l28.68-122.29L603,192.34,582.46.21h41.22l10.59,128.17L696.34,4h41.21Z"/><path class="cls-1" d="M700.94,231.25a28.32,28.32,0,0,1-13.73-15.5q-3.75-10.14-.73-24.36l17.32-81.48a56.46,56.46,0,0,1,11-24,51.44,51.44,0,0,1,20.24-15.18,70.81,70.81,0,0,1,27.87-5.19q15.65,0,25.73,5.19a27.51,27.51,0,0,1,13.79,15.18q3.7,10,.72,24l-17.42,82a57.36,57.36,0,0,1-11,24.12,50.94,50.94,0,0,1-20.27,15.34q-12.3,5.28-28,5.27T700.94,231.25Zm41.7-33.47q3.39-3.19,4.68-9.26L763.39,113q1.22-5.76-.83-8.87c-1.38-2.07-3.76-3.11-7.17-3.11a12.08,12.08,0,0,0-8.35,3.19A15.86,15.86,0,0,0,742.3,113l-16.07,75.57q-1.29,6.07.83,9.26t7.07,3.2A12,12,0,0,0,742.64,197.78Z"/><path class="cls-1" d="M902.55,66.18c-.13.62-.27,1.26-.4,1.89-6.58,31-17.71,83.33-25.58,120.36h0c-.93,4.35-2.57,7.62-5,9.78-3.94,3.59-7.45,3.59-10.78,3.65s-5.54-1.09-7-3.18-1.68-5.19-.82-9.22l16-75.2a21.56,21.56,0,0,1,.65-2.31L879,67.69l.32-1.51h-39L831.71,107l-17.44,82.05a79.31,79.31,0,0,0-2,19,33.85,33.85,0,0,0,1.88,8.52,28.1,28.1,0,0,0,13.26,15.19,41.8,41.8,0,0,0,16,4.58,174,174,0,0,0,18.28-.05c15.89-.62,32.2-4.28,42.31-19.41,4.54-6.77,9.87-19.52,11.68-29.23L941.5,66.18Z"/></g></g></svg>