<svg xmlns="http://www.w3.org/2000/svg" viewBox="0 0 508.24 200.03"><defs><style>.cls-1{fill:#1899a3;}.cls-2{font-size:46.68px;fill:#1f3146;font-family:Parkside-Regular, Parkside;}.cls-3{letter-spacing:-0.01em;}.cls-4{letter-spacing:0em;}.cls-5{letter-spacing:0.09em;}</style></defs><title>Fichier 7</title><g id="Calque_2" data-name="Calque 2"><g id="Calque_1-2" data-name="Calque 1"><g id="Logo_wo_sh"><polygon class="cls-1" points="87.73 1.02 52.56 67.98 46.37 1.02 26.2 1.02 0 124.26 19.16 124.26 34.78 50.76 39.97 102.47 50.48 102.47 78.71 47.83 62.47 124.26 81.2 124.26 107.39 1.02 87.73 1.02"/><path class="cls-1" d="M163,47.55A16.35,16.35,0,0,0,155.6,38q-5.46-3.25-14.18-3.26a34.2,34.2,0,0,0-15.34,3.35,30.28,30.28,0,0,0-11.36,9.79A41.15,41.15,0,0,0,108.2,63.4l-7.45,35.09q-1.83,8.57.19,14.62a16.22,16.22,0,0,0,7.58,9.24q5.55,3.18,14.28,3.18,12.88,0,21.42-6.66t11.11-18.77l.52-2.46-20.22-.17-.65,3a7.46,7.46,0,0,1-2.75,4.58,8.71,8.71,0,0,1-5.43,1.61c-2.37,0-4.06-.65-5-1.95s-1.24-3.16-.72-5.59l2.45-11.53h34.24L163,62.72Q164.91,53.83,163,47.55ZM142.87,61.79,140.64,72.3h-13.9l2.11-9.92A13.3,13.3,0,0,1,132,55.81a7.28,7.28,0,0,1,5.45-2.33q3.39,0,4.83,2.21C143.22,57.16,143.43,59.19,142.87,61.79Z"/><path class="cls-1" d="M262.86,95.44q8.53-14.67,12.92-35.26H255.69a127.59,127.59,0,0,1-5.85,20.05l-6.76-16.15a115.75,115.75,0,0,1-4.59-12.72,53.79,53.79,0,0,1-2-11.4,40.44,40.44,0,0,1,.8-11.14,14.72,14.72,0,0,1,3.67-7.5,8.45,8.45,0,0,1,6.2-2.67c2.38,0,4,.86,5,2.58s1.11,4.11.46,7.16L250.38,38.9h20.94l2.23-10.51q2.86-13.47-3-20.93T251.11,0q-13.56,0-22.72,7.59T216.33,28.82a53.86,53.86,0,0,0-1.12,15.47,68.38,68.38,0,0,0,2.61,14.24c.41,1.38.89,2.89,1.42,4.49a41.64,41.64,0,0,0-13.72,7.29,38.11,38.11,0,0,0-13.37,22.42Q190,103.07,192,110.44a18.75,18.75,0,0,0,8.21,11.23q6.13,3.85,15.88,3.86A47.37,47.37,0,0,0,240.48,119l2,5.25h25.77l-9.44-22.57C260.22,99.72,261.57,97.65,262.86,95.44Zm-39.18,10.85q-6.6,0-9.5-3.56t-1.51-10a15.27,15.27,0,0,1,7.25-10.22,22.39,22.39,0,0,1,5.61-2.4l8.74,22.74A18.48,18.48,0,0,1,223.68,106.29Z"/><path class="cls-1" d="M340.93,102l-4.82,21.2L320.9,188.11h-21l15.22-64.88L319.91,102,309,.11h21.87l5.61,68,32.93-66H391.3Z"/><path class="cls-1" d="M371.87,122.69a15,15,0,0,1-7.28-8.22q-2-5.39-.39-12.93l9.19-43.23a30,30,0,0,1,5.85-12.75A27.13,27.13,0,0,1,390,37.51a37.39,37.39,0,0,1,14.78-2.76q8.31,0,13.65,2.76a14.54,14.54,0,0,1,7.32,8.05q2,5.3.38,12.75l-9.24,43.49a30.61,30.61,0,0,1-5.81,12.79,27.05,27.05,0,0,1-10.76,8.14,37.42,37.42,0,0,1-14.83,2.8Q377.16,125.53,371.87,122.69ZM394,104.93a9.13,9.13,0,0,0,2.48-4.91L405,59.93q.66-3.06-.44-4.71a4.2,4.2,0,0,0-3.8-1.65,6.42,6.42,0,0,0-4.43,1.69,8.46,8.46,0,0,0-2.51,4.67L385.29,100c-.45,2.14-.31,3.78.44,4.91a4.17,4.17,0,0,0,3.75,1.7A6.36,6.36,0,0,0,394,104.93Z"/><path class="cls-1" d="M478.84,35.11l-.22,1c-3.49,16.43-9.39,44.2-13.57,63.85h0a9.47,9.47,0,0,1-2.62,5.19,7.43,7.43,0,0,1-5.72,1.93,4.24,4.24,0,0,1-3.74-1.68c-.78-1.1-.89-2.76-.43-4.89L461,60.62a11,11,0,0,1,.34-1.23l5-23.48.17-.8H445.86l-4.61,21.67L432,100.31a42.2,42.2,0,0,0-1.06,10.06,17.45,17.45,0,0,0,1,4.52,14.86,14.86,0,0,0,7,8.06,22.15,22.15,0,0,0,8.5,2.43,92.19,92.19,0,0,0,9.69,0c8.44-.32,17.09-2.27,22.45-10.29a48.58,48.58,0,0,0,6.2-15.51L499.5,35.11Z"/><text class="cls-2" transform="translate(339.91 188.55)">Corpo<tspan class="cls-3" x="102.04" y="0">r</tspan><tspan class="cls-4" x="116.84" y="0">at</tspan><tspan class="cls-5" x="148.16" y="0">e</tspan></text></g></g></g></svg>